<svg width="226" height="136" viewBox="0 0 226 136" fill="none" xmlns="http://www.w3.org/2000/svg">
<circle cx="112.741" cy="39.7426" r="39" fill="#DEFBEA"/>
<path d="M126.923 39.1516V34.9016C126.923 33.7745 126.466 32.6935 125.653 31.8964C124.841 31.0994 123.739 30.6516 122.589 30.6516H105.256C104.107 30.6516 103.004 31.0994 102.192 31.8964C101.379 32.6935 100.923 33.7745 100.923 34.9016V51.9016C100.923 53.0288 101.379 54.1098 102.192 54.9068C103.004 55.7039 104.107 56.1516 105.256 56.1516H109.589" stroke="#44924C" stroke-width="3" stroke-linecap="round" stroke-linejoin="round"/>
<path d="M92.2559 22.1516V22.1729M100.923 22.1516V22.1729M109.589 22.1516V22.1729M118.256 22.1516V22.1729M92.2559 30.6516V30.6729M92.2559 39.1516V39.1729M92.2559 47.6516V47.6729M113.923 43.4016L133.423 49.7766L124.756 54.0266L120.423 62.5266L113.923 43.4016Z" stroke="#44924C" stroke-width="3" stroke-linecap="round" stroke-linejoin="round"/>
<path d="M6.01354 131.743H1.77561V118.652H6.14777C7.43044 118.652 8.532 118.914 9.45246 119.438C10.3729 119.958 11.0782 120.706 11.5682 121.681C12.0625 122.653 12.3097 123.819 12.3097 125.178C12.3097 126.542 12.0604 127.713 11.5618 128.694C11.0675 129.674 10.3516 130.428 9.41411 130.956C8.47661 131.48 7.34308 131.743 6.01354 131.743ZM3.75075 130.017H5.90487C6.90203 130.017 7.73087 129.829 8.39138 129.454C9.05189 129.075 9.54621 128.527 9.87433 127.811C10.2025 127.091 10.3665 126.213 10.3665 125.178C10.3665 124.151 10.2025 123.279 9.87433 122.564C9.55047 121.848 9.06681 121.304 8.42334 120.934C7.77987 120.563 6.98087 120.377 6.02632 120.377H3.75075V130.017ZM14.6124 131.743V121.924H16.4597V123.484H16.562C16.741 122.956 17.0563 122.54 17.508 122.238C17.964 121.931 18.4796 121.777 19.0549 121.777C19.1742 121.777 19.3149 121.782 19.4768 121.79C19.643 121.799 19.7729 121.809 19.8667 121.822V123.65C19.79 123.629 19.6536 123.605 19.4576 123.58C19.2616 123.55 19.0656 123.535 18.8695 123.535C18.4178 123.535 18.0151 123.631 17.6614 123.823C17.312 124.01 17.035 124.272 16.8305 124.609C16.6259 124.941 16.5237 125.321 16.5237 125.747V131.743H14.6124ZM24.29 131.96C23.6678 131.96 23.1053 131.845 22.6025 131.615C22.0997 131.38 21.7012 131.042 21.4072 130.598C21.1174 130.155 20.9725 129.612 20.9725 128.968C20.9725 128.414 21.0791 127.958 21.2921 127.601C21.5052 127.243 21.7928 126.959 22.1551 126.75C22.5173 126.542 22.9221 126.384 23.3695 126.277C23.817 126.171 24.2729 126.09 24.7374 126.034C25.3255 125.966 25.8028 125.911 26.1693 125.868C26.5357 125.821 26.8021 125.747 26.9683 125.645C27.1345 125.542 27.2176 125.376 27.2176 125.146V125.101C27.2176 124.543 27.0599 124.11 26.7445 123.804C26.4335 123.497 25.969 123.343 25.3511 123.343C24.7076 123.343 24.2005 123.486 23.8298 123.772C23.4633 124.053 23.2097 124.366 23.0691 124.711L21.2729 124.302C21.486 123.706 21.7971 123.224 22.2062 122.858C22.6195 122.487 23.0947 122.218 23.6316 122.052C24.1685 121.882 24.7332 121.797 25.3255 121.797C25.7176 121.797 26.133 121.843 26.572 121.937C27.0151 122.027 27.4285 122.193 27.812 122.436C28.1998 122.679 28.5173 123.026 28.7644 123.478C29.0116 123.925 29.1352 124.507 29.1352 125.223V131.743H27.2687V130.4H27.192C27.0684 130.647 26.883 130.89 26.6359 131.129C26.3887 131.368 26.0712 131.566 25.6835 131.723C25.2957 131.881 24.8312 131.96 24.29 131.96ZM24.7055 130.426C25.2339 130.426 25.6856 130.321 26.0606 130.113C26.4399 129.904 26.7275 129.631 26.9235 129.294C27.1238 128.953 27.2239 128.589 27.2239 128.201V126.936C27.1558 127.004 27.0237 127.068 26.8276 127.127C26.6359 127.183 26.4164 127.232 26.1693 127.275C25.9221 127.313 25.6813 127.349 25.447 127.383C25.2126 127.413 25.0166 127.439 24.8589 127.46C24.4881 127.507 24.1494 127.586 23.8426 127.696C23.54 127.807 23.2971 127.967 23.1139 128.176C22.9349 128.38 22.8454 128.653 22.8454 128.994C22.8454 129.467 23.0201 129.825 23.3695 130.068C23.719 130.306 24.1643 130.426 24.7055 130.426ZM35.7973 135.629C35.0174 135.629 34.3463 135.527 33.7838 135.322C33.2255 135.118 32.7696 134.847 32.4159 134.51C32.0622 134.174 31.798 133.805 31.6233 133.404L33.266 132.727C33.3811 132.914 33.5345 133.113 33.7263 133.321C33.9223 133.534 34.1865 133.716 34.5189 133.865C34.8555 134.014 35.288 134.088 35.8165 134.088C36.5409 134.088 37.1396 133.912 37.6126 133.558C38.0856 133.208 38.3221 132.65 38.3221 131.883V129.953H38.2007C38.0856 130.162 37.9194 130.394 37.7021 130.65C37.489 130.905 37.195 131.127 36.82 131.314C36.445 131.502 35.9571 131.596 35.3562 131.596C34.5807 131.596 33.8818 131.414 33.2596 131.052C32.6417 130.686 32.1517 130.147 31.7895 129.435C31.4315 128.719 31.2525 127.839 31.2525 126.795C31.2525 125.751 31.4294 124.856 31.7831 124.11C32.141 123.365 32.6311 122.794 33.2532 122.397C33.8754 121.997 34.5807 121.797 35.369 121.797C35.9784 121.797 36.4706 121.899 36.8456 122.103C37.2206 122.304 37.5125 122.538 37.7213 122.806C37.9343 123.075 38.0984 123.311 38.2135 123.516H38.3541V121.924H40.227V131.96C40.227 132.804 40.0309 133.496 39.6389 134.037C39.2468 134.578 38.7163 134.979 38.0473 135.239C37.3825 135.499 36.6325 135.629 35.7973 135.629ZM35.7781 130.01C36.3278 130.01 36.7923 129.882 37.1716 129.627C37.5551 129.367 37.8449 128.996 38.0409 128.515C38.2412 128.029 38.3413 127.447 38.3413 126.77C38.3413 126.109 38.2433 125.527 38.0473 125.025C37.8513 124.522 37.5636 124.13 37.1843 123.848C36.8051 123.563 36.3363 123.42 35.7781 123.42C35.2028 123.42 34.7234 123.569 34.3399 123.868C33.9564 124.162 33.6666 124.562 33.4706 125.069C33.2788 125.576 33.1829 126.143 33.1829 126.77C33.1829 127.413 33.2809 127.978 33.477 128.463C33.673 128.949 33.9628 129.328 34.3463 129.601C34.7341 129.874 35.2113 130.01 35.7781 130.01ZM51.3635 131.928C50.4857 131.928 49.7293 131.768 49.0943 131.449C48.4636 131.129 47.9778 130.694 47.6369 130.145C47.296 129.591 47.1256 128.964 47.1256 128.265C47.1256 127.733 47.2364 127.26 47.458 126.846C47.6796 126.429 47.9885 126.043 48.3848 125.689C48.7811 125.336 49.2392 124.98 49.7591 124.622L51.8685 123.132C52.2264 122.898 52.5055 122.651 52.7058 122.391C52.9061 122.127 53.0063 121.801 53.0063 121.413C53.0063 121.106 52.8742 120.812 52.61 120.531C52.3457 120.25 51.9921 120.109 51.5489 120.109C51.2421 120.109 50.9715 120.184 50.7371 120.333C50.507 120.482 50.3259 120.674 50.1938 120.908C50.0659 121.138 50.002 121.381 50.002 121.637C50.002 121.935 50.083 122.235 50.2449 122.538C50.4111 122.841 50.6242 123.154 50.8841 123.478C51.144 123.797 51.4168 124.13 51.7023 124.475L57.7811 131.743H55.6206L50.5901 125.83C50.1682 125.331 49.7761 124.863 49.4139 124.424C49.0517 123.98 48.7577 123.533 48.5318 123.081C48.3102 122.625 48.1994 122.133 48.1994 121.605C48.1994 121.004 48.3358 120.471 48.6085 120.007C48.8855 119.538 49.2712 119.172 49.7655 118.907C50.2598 118.643 50.8394 118.511 51.5041 118.511C52.1774 118.511 52.7548 118.643 53.2364 118.907C53.7222 119.167 54.095 119.515 54.355 119.949C54.6192 120.38 54.7513 120.851 54.7513 121.362C54.7513 121.984 54.5957 122.534 54.2847 123.011C53.9779 123.484 53.5538 123.919 53.0127 124.315L50.3855 126.252C49.8742 126.627 49.5183 126.998 49.318 127.364C49.122 127.726 49.024 128.01 49.024 128.214C49.024 128.589 49.1199 128.936 49.3117 129.256C49.5077 129.576 49.7804 129.831 50.1298 130.023C50.4835 130.215 50.8969 130.311 51.3699 130.311C51.8557 130.311 52.3287 130.206 52.7889 129.998C53.2534 129.784 53.6732 129.48 54.0482 129.083C54.4274 128.687 54.7279 128.212 54.9494 127.658C55.171 127.104 55.2818 126.484 55.2818 125.798H57.0077C57.0077 126.642 56.9118 127.355 56.72 127.939C56.5283 128.519 56.296 128.992 56.0233 129.358C55.7548 129.721 55.5013 130.004 55.2627 130.208C55.1859 130.277 55.1135 130.345 55.0453 130.413C54.9771 130.481 54.9047 130.549 54.828 130.618C54.3848 131.065 53.8479 131.395 53.2172 131.608C52.5908 131.821 51.9729 131.928 51.3635 131.928ZM67.7176 131.934C66.9249 131.934 66.2176 131.732 65.5954 131.327C64.9775 130.918 64.4917 130.336 64.138 129.582C63.7886 128.824 63.6139 127.914 63.6139 126.853C63.6139 125.792 63.7907 124.884 64.1444 124.13C64.5024 123.375 64.9924 122.798 65.6146 122.397C66.2367 121.997 66.942 121.797 67.7303 121.797C68.3397 121.797 68.8298 121.899 69.2005 122.103C69.5755 122.304 69.8653 122.538 70.0698 122.806C70.2786 123.075 70.4406 123.311 70.5556 123.516H70.6707V118.652H72.5819V131.743H70.7154V130.215H70.5556C70.4406 130.424 70.2744 130.662 70.057 130.931C69.844 131.199 69.5499 131.434 69.1749 131.634C68.7999 131.834 68.3141 131.934 67.7176 131.934ZM68.1394 130.304C68.6891 130.304 69.1536 130.159 69.5329 129.87C69.9164 129.576 70.2062 129.169 70.4022 128.649C70.6025 128.129 70.7026 127.524 70.7026 126.833C70.7026 126.152 70.6046 125.555 70.4086 125.044C70.2126 124.532 69.9249 124.134 69.5457 123.848C69.1664 123.563 68.6977 123.42 68.1394 123.42C67.5641 123.42 67.0847 123.569 66.7012 123.868C66.3177 124.166 66.0279 124.573 65.8319 125.088C65.6401 125.604 65.5443 126.186 65.5443 126.833C65.5443 127.49 65.6423 128.08 65.8383 128.604C66.0343 129.128 66.3241 129.544 66.7076 129.851C67.0954 130.153 67.5727 130.304 68.1394 130.304ZM75.3097 131.743V121.924H77.157V123.484H77.2593C77.4383 122.956 77.7536 122.54 78.2053 122.238C78.6613 121.931 79.1769 121.777 79.7522 121.777C79.8715 121.777 80.0121 121.782 80.1741 121.79C80.3402 121.799 80.4702 121.809 80.564 121.822V123.65C80.4873 123.629 80.3509 123.605 80.1549 123.58C79.9589 123.55 79.7628 123.535 79.5668 123.535C79.1151 123.535 78.7124 123.631 78.3587 123.823C78.0093 124.01 77.7323 124.272 77.5277 124.609C77.3232 124.941 77.2209 125.321 77.2209 125.747V131.743H75.3097ZM86.002 131.941C85.0815 131.941 84.2783 131.73 83.5922 131.308C82.9061 130.886 82.3734 130.296 81.9942 129.537C81.6149 128.779 81.4253 127.892 81.4253 126.878C81.4253 125.86 81.6149 124.969 81.9942 124.206C82.3734 123.444 82.9061 122.851 83.5922 122.429C84.2783 122.007 85.0815 121.797 86.002 121.797C86.9225 121.797 87.7257 122.007 88.4118 122.429C89.0979 122.851 89.6305 123.444 90.0098 124.206C90.3891 124.969 90.5787 125.86 90.5787 126.878C90.5787 127.892 90.3891 128.779 90.0098 129.537C89.6305 130.296 89.0979 130.886 88.4118 131.308C87.7257 131.73 86.9225 131.941 86.002 131.941ZM86.0084 130.336C86.605 130.336 87.0993 130.179 87.4913 129.863C87.8834 129.548 88.1732 129.128 88.3607 128.604C88.5524 128.08 88.6483 127.502 88.6483 126.872C88.6483 126.245 88.5524 125.67 88.3607 125.146C88.1732 124.618 87.8834 124.194 87.4913 123.874C87.0993 123.554 86.605 123.395 86.0084 123.395C85.4075 123.395 84.909 123.554 84.5127 123.874C84.1206 124.194 83.8287 124.618 83.6369 125.146C83.4494 125.67 83.3557 126.245 83.3557 126.872C83.3557 127.502 83.4494 128.08 83.6369 128.604C83.8287 129.128 84.1206 129.548 84.5127 129.863C84.909 130.179 85.4075 130.336 86.0084 130.336ZM92.712 135.424V121.924H94.5785V123.516H94.7383C94.8491 123.311 95.0089 123.075 95.2177 122.806C95.4265 122.538 95.7163 122.304 96.087 122.103C96.4578 121.899 96.9478 121.797 97.5572 121.797C98.3498 121.797 99.0572 121.997 99.6794 122.397C100.302 122.798 100.789 123.375 101.143 124.13C101.501 124.884 101.68 125.792 101.68 126.853C101.68 127.914 101.503 128.824 101.15 129.582C100.796 130.336 100.31 130.918 99.6922 131.327C99.0743 131.732 98.369 131.934 97.5764 131.934C96.9798 131.934 96.4919 131.834 96.1126 131.634C95.7376 131.434 95.4436 131.199 95.2305 130.931C95.0174 130.662 94.8534 130.424 94.7383 130.215H94.6233V135.424H92.712ZM94.5849 126.833C94.5849 127.524 94.6851 128.129 94.8853 128.649C95.0856 129.169 95.3754 129.576 95.7547 129.87C96.1339 130.159 96.5984 130.304 97.1481 130.304C97.7191 130.304 98.1964 130.153 98.5799 129.851C98.9635 129.544 99.2532 129.128 99.4493 128.604C99.6495 128.08 99.7497 127.49 99.7497 126.833C99.7497 126.186 99.6517 125.604 99.4557 125.088C99.2639 124.573 98.9741 124.166 98.5863 123.868C98.2028 123.569 97.7234 123.42 97.1481 123.42C96.5941 123.42 96.1254 123.563 95.7419 123.848C95.3626 124.134 95.075 124.532 94.879 125.044C94.6829 125.555 94.5849 126.152 94.5849 126.833ZM113.168 121.924V123.458H107.805V121.924H113.168ZM109.243 119.572H111.155V128.86C111.155 129.23 111.21 129.51 111.321 129.697C111.432 129.88 111.574 130.006 111.749 130.074C111.928 130.138 112.122 130.17 112.331 130.17C112.484 130.17 112.618 130.159 112.734 130.138C112.849 130.117 112.938 130.1 113.002 130.087L113.347 131.666C113.236 131.708 113.079 131.751 112.874 131.794C112.67 131.841 112.414 131.866 112.107 131.87C111.604 131.879 111.136 131.789 110.701 131.602C110.266 131.414 109.915 131.125 109.646 130.733C109.378 130.341 109.243 129.848 109.243 129.256V119.572ZM119.313 131.941C118.392 131.941 117.589 131.73 116.903 131.308C116.217 130.886 115.684 130.296 115.305 129.537C114.925 128.779 114.736 127.892 114.736 126.878C114.736 125.86 114.925 124.969 115.305 124.206C115.684 123.444 116.217 122.851 116.903 122.429C117.589 122.007 118.392 121.797 119.313 121.797C120.233 121.797 121.036 122.007 121.722 122.429C122.408 122.851 122.941 123.444 123.32 124.206C123.7 124.969 123.889 125.86 123.889 126.878C123.889 127.892 123.7 128.779 123.32 129.537C122.941 130.296 122.408 130.886 121.722 131.308C121.036 131.73 120.233 131.941 119.313 131.941ZM119.319 130.336C119.916 130.336 120.41 130.179 120.802 129.863C121.194 129.548 121.484 129.128 121.671 128.604C121.863 128.08 121.959 127.502 121.959 126.872C121.959 126.245 121.863 125.67 121.671 125.146C121.484 124.618 121.194 124.194 120.802 123.874C120.41 123.554 119.916 123.395 119.319 123.395C118.718 123.395 118.22 123.554 117.823 123.874C117.431 124.194 117.139 124.618 116.947 125.146C116.76 125.67 116.666 126.245 116.666 126.872C116.666 127.502 116.76 128.08 116.947 128.604C117.139 129.128 117.431 129.548 117.823 129.863C118.22 130.179 118.718 130.336 119.319 130.336ZM134.903 135.629C134.123 135.629 133.452 135.527 132.889 135.322C132.331 135.118 131.875 134.847 131.521 134.51C131.168 134.174 130.903 133.805 130.729 133.404L132.371 132.727C132.487 132.914 132.64 133.113 132.832 133.321C133.028 133.534 133.292 133.716 133.624 133.865C133.961 134.014 134.394 134.088 134.922 134.088C135.646 134.088 136.245 133.912 136.718 133.558C137.191 133.208 137.428 132.65 137.428 131.883V129.953H137.306C137.191 130.162 137.025 130.394 136.808 130.65C136.595 130.905 136.3 131.127 135.925 131.314C135.55 131.502 135.063 131.596 134.462 131.596C133.686 131.596 132.987 131.414 132.365 131.052C131.747 130.686 131.257 130.147 130.895 129.435C130.537 128.719 130.358 127.839 130.358 126.795C130.358 125.751 130.535 124.856 130.889 124.11C131.246 123.365 131.737 122.794 132.359 122.397C132.981 121.997 133.686 121.797 134.474 121.797C135.084 121.797 135.576 121.899 135.951 122.103C136.326 122.304 136.618 122.538 136.827 122.806C137.04 123.075 137.204 123.311 137.319 123.516H137.46V121.924H139.332V131.96C139.332 132.804 139.136 133.496 138.744 134.037C138.352 134.578 137.822 134.979 137.153 135.239C136.488 135.499 135.738 135.629 134.903 135.629ZM134.884 130.01C135.433 130.01 135.898 129.882 136.277 129.627C136.661 129.367 136.95 128.996 137.146 128.515C137.347 128.029 137.447 127.447 137.447 126.77C137.447 126.109 137.349 125.527 137.153 125.025C136.957 124.522 136.669 124.13 136.29 123.848C135.911 123.563 135.442 123.42 134.884 123.42C134.308 123.42 133.829 123.569 133.445 123.868C133.062 124.162 132.772 124.562 132.576 125.069C132.384 125.576 132.288 126.143 132.288 126.77C132.288 127.413 132.386 127.978 132.582 128.463C132.778 128.949 133.068 129.328 133.452 129.601C133.84 129.874 134.317 130.01 134.884 130.01ZM146.127 131.941C145.16 131.941 144.327 131.734 143.628 131.321C142.933 130.903 142.396 130.317 142.017 129.563C141.642 128.804 141.455 127.916 141.455 126.897C141.455 125.892 141.642 125.005 142.017 124.238C142.396 123.471 142.925 122.873 143.602 122.442C144.284 122.012 145.081 121.797 145.993 121.797C146.547 121.797 147.084 121.888 147.604 122.071C148.124 122.255 148.59 122.542 149.004 122.934C149.417 123.326 149.743 123.836 149.982 124.462C150.22 125.084 150.34 125.841 150.34 126.731V127.409H142.535V125.977H148.467C148.467 125.474 148.364 125.029 148.16 124.641C147.955 124.249 147.668 123.94 147.297 123.714C146.93 123.488 146.5 123.375 146.006 123.375C145.469 123.375 145 123.507 144.599 123.772C144.203 124.032 143.896 124.373 143.679 124.794C143.466 125.212 143.359 125.666 143.359 126.156V127.275C143.359 127.931 143.474 128.489 143.705 128.949C143.939 129.409 144.265 129.761 144.683 130.004C145.1 130.243 145.588 130.362 146.146 130.362C146.509 130.362 146.839 130.311 147.137 130.208C147.435 130.102 147.693 129.944 147.911 129.735C148.128 129.527 148.294 129.269 148.409 128.962L150.218 129.288C150.073 129.821 149.813 130.287 149.438 130.688C149.068 131.084 148.601 131.393 148.038 131.615C147.48 131.832 146.843 131.941 146.127 131.941ZM157.043 121.924V123.458H151.68V121.924H157.043ZM153.118 119.572H155.03V128.86C155.03 129.23 155.085 129.51 155.196 129.697C155.307 129.88 155.449 130.006 155.624 130.074C155.803 130.138 155.997 130.17 156.206 130.17C156.359 130.17 156.493 130.159 156.609 130.138C156.724 130.117 156.813 130.1 156.877 130.087L157.222 131.666C157.111 131.708 156.954 131.751 156.749 131.794C156.545 131.841 156.289 131.866 155.982 131.87C155.479 131.879 155.011 131.789 154.576 131.602C154.141 131.414 153.79 131.125 153.521 130.733C153.253 130.341 153.118 129.848 153.118 129.256V119.572ZM171.278 124.321L169.546 124.628C169.474 124.407 169.359 124.196 169.201 123.995C169.047 123.795 168.839 123.631 168.574 123.503C168.31 123.375 167.98 123.311 167.584 123.311C167.042 123.311 166.591 123.433 166.229 123.676C165.866 123.914 165.685 124.223 165.685 124.603C165.685 124.931 165.807 125.195 166.05 125.395C166.292 125.596 166.685 125.76 167.226 125.887L168.785 126.245C169.689 126.454 170.362 126.776 170.805 127.211C171.248 127.645 171.47 128.21 171.47 128.904C171.47 129.493 171.3 130.017 170.959 130.477C170.622 130.933 170.151 131.291 169.546 131.551C168.945 131.811 168.248 131.941 167.456 131.941C166.356 131.941 165.459 131.706 164.765 131.238C164.07 130.765 163.644 130.093 163.486 129.224L165.334 128.943C165.449 129.424 165.685 129.789 166.043 130.036C166.401 130.279 166.868 130.4 167.443 130.4C168.069 130.4 168.57 130.27 168.945 130.01C169.32 129.746 169.508 129.424 169.508 129.045C169.508 128.738 169.393 128.48 169.163 128.272C168.937 128.063 168.589 127.905 168.121 127.799L166.459 127.434C165.542 127.226 164.865 126.893 164.426 126.437C163.991 125.981 163.774 125.404 163.774 124.705C163.774 124.125 163.936 123.618 164.26 123.184C164.584 122.749 165.031 122.41 165.602 122.167C166.173 121.92 166.827 121.797 167.564 121.797C168.626 121.797 169.461 122.027 170.07 122.487C170.68 122.943 171.082 123.554 171.278 124.321ZM178.155 121.924V123.458H172.792V121.924H178.155ZM174.23 119.572H176.141V128.86C176.141 129.23 176.196 129.51 176.307 129.697C176.418 129.88 176.561 130.006 176.735 130.074C176.914 130.138 177.108 130.17 177.317 130.17C177.471 130.17 177.605 130.159 177.72 130.138C177.835 130.117 177.924 130.1 177.988 130.087L178.333 131.666C178.223 131.708 178.065 131.751 177.86 131.794C177.656 131.841 177.4 131.866 177.093 131.87C176.591 131.879 176.122 131.789 175.687 131.602C175.253 131.414 174.901 131.125 174.633 130.733C174.364 130.341 174.23 129.848 174.23 129.256V119.572ZM183.126 131.96C182.504 131.96 181.941 131.845 181.438 131.615C180.936 131.38 180.537 131.042 180.243 130.598C179.953 130.155 179.808 129.612 179.808 128.968C179.808 128.414 179.915 127.958 180.128 127.601C180.341 127.243 180.629 126.959 180.991 126.75C181.353 126.542 181.758 126.384 182.205 126.277C182.653 126.171 183.109 126.09 183.573 126.034C184.161 125.966 184.639 125.911 185.005 125.868C185.372 125.821 185.638 125.747 185.804 125.645C185.97 125.542 186.053 125.376 186.053 125.146V125.101C186.053 124.543 185.896 124.11 185.58 123.804C185.269 123.497 184.805 123.343 184.187 123.343C183.544 123.343 183.036 123.486 182.666 123.772C182.299 124.053 182.046 124.366 181.905 124.711L180.109 124.302C180.322 123.706 180.633 123.224 181.042 122.858C181.455 122.487 181.931 122.218 182.468 122.052C183.004 121.882 183.569 121.797 184.161 121.797C184.553 121.797 184.969 121.843 185.408 121.937C185.851 122.027 186.264 122.193 186.648 122.436C187.036 122.679 187.353 123.026 187.6 123.478C187.848 123.925 187.971 124.507 187.971 125.223V131.743H186.105V130.4H186.028C185.904 130.647 185.719 130.89 185.472 131.129C185.225 131.368 184.907 131.566 184.519 131.723C184.132 131.881 183.667 131.96 183.126 131.96ZM183.541 130.426C184.07 130.426 184.522 130.321 184.897 130.113C185.276 129.904 185.563 129.631 185.759 129.294C185.96 128.953 186.06 128.589 186.06 128.201V126.936C185.992 127.004 185.86 127.068 185.664 127.127C185.472 127.183 185.252 127.232 185.005 127.275C184.758 127.313 184.517 127.349 184.283 127.383C184.049 127.413 183.852 127.439 183.695 127.46C183.324 127.507 182.985 127.586 182.678 127.696C182.376 127.807 182.133 127.967 181.95 128.176C181.771 128.38 181.681 128.653 181.681 128.994C181.681 129.467 181.856 129.825 182.205 130.068C182.555 130.306 183 130.426 183.541 130.426ZM190.517 131.743V121.924H192.364V123.484H192.466C192.645 122.956 192.961 122.54 193.412 122.238C193.868 121.931 194.384 121.777 194.959 121.777C195.079 121.777 195.219 121.782 195.381 121.79C195.547 121.799 195.677 121.809 195.771 121.822V123.65C195.694 123.629 195.558 123.605 195.362 123.58C195.166 123.55 194.97 123.535 194.774 123.535C194.322 123.535 193.919 123.631 193.566 123.823C193.216 124.01 192.939 124.272 192.735 124.609C192.53 124.941 192.428 125.321 192.428 125.747V131.743H190.517ZM202.588 121.924V123.458H197.225V121.924H202.588ZM198.663 119.572H200.575V128.86C200.575 129.23 200.63 129.51 200.741 129.697C200.852 129.88 200.994 130.006 201.169 130.074C201.348 130.138 201.542 130.17 201.751 130.17C201.904 130.17 202.038 130.159 202.153 130.138C202.269 130.117 202.358 130.1 202.422 130.087L202.767 131.666C202.656 131.708 202.499 131.751 202.294 131.794C202.09 131.841 201.834 131.866 201.527 131.87C201.024 131.879 200.555 131.789 200.121 131.602C199.686 131.414 199.335 131.125 199.066 130.733C198.798 130.341 198.663 129.848 198.663 129.256V119.572ZM208.828 131.941C207.861 131.941 207.028 131.734 206.329 131.321C205.634 130.903 205.098 130.317 204.718 129.563C204.343 128.804 204.156 127.916 204.156 126.897C204.156 125.892 204.343 125.005 204.718 124.238C205.098 123.471 205.626 122.873 206.303 122.442C206.985 122.012 207.782 121.797 208.694 121.797C209.248 121.797 209.785 121.888 210.305 122.071C210.825 122.255 211.291 122.542 211.705 122.934C212.118 123.326 212.444 123.836 212.683 124.462C212.921 125.084 213.041 125.841 213.041 126.731V127.409H205.236V125.977H211.168C211.168 125.474 211.066 125.029 210.861 124.641C210.656 124.249 210.369 123.94 209.998 123.714C209.632 123.488 209.201 123.375 208.707 123.375C208.17 123.375 207.701 123.507 207.301 123.772C206.904 124.032 206.598 124.373 206.38 124.794C206.167 125.212 206.061 125.666 206.061 126.156V127.275C206.061 127.931 206.176 128.489 206.406 128.949C206.64 129.409 206.966 129.761 207.384 130.004C207.801 130.243 208.289 130.362 208.848 130.362C209.21 130.362 209.54 130.311 209.838 130.208C210.137 130.102 210.394 129.944 210.612 129.735C210.829 129.527 210.995 129.269 211.11 128.962L212.919 129.288C212.774 129.821 212.514 130.287 212.139 130.688C211.769 131.084 211.302 131.393 210.74 131.615C210.181 131.832 209.544 131.941 208.828 131.941ZM218.837 131.934C218.044 131.934 217.337 131.732 216.715 131.327C216.097 130.918 215.611 130.336 215.257 129.582C214.908 128.824 214.733 127.914 214.733 126.853C214.733 125.792 214.91 124.884 215.264 124.13C215.621 123.375 216.112 122.798 216.734 122.397C217.356 121.997 218.061 121.797 218.849 121.797C219.459 121.797 219.949 121.899 220.32 122.103C220.695 122.304 220.984 122.538 221.189 122.806C221.398 123.075 221.56 123.311 221.675 123.516H221.79V118.652H223.701V131.743H221.835V130.215H221.675C221.56 130.424 221.394 130.662 221.176 130.931C220.963 131.199 220.669 131.434 220.294 131.634C219.919 131.834 219.433 131.934 218.837 131.934ZM219.259 130.304C219.808 130.304 220.273 130.159 220.652 129.87C221.036 129.576 221.325 129.169 221.521 128.649C221.722 128.129 221.822 127.524 221.822 126.833C221.822 126.152 221.724 125.555 221.528 125.044C221.332 124.532 221.044 124.134 220.665 123.848C220.286 123.563 219.817 123.42 219.259 123.42C218.683 123.42 218.204 123.569 217.82 123.868C217.437 124.166 217.147 124.573 216.951 125.088C216.759 125.604 216.663 126.186 216.663 126.833C216.663 127.49 216.761 128.08 216.957 128.604C217.153 129.128 217.443 129.544 217.827 129.851C218.215 130.153 218.692 130.304 219.259 130.304Z" fill="black"/>
</svg>
